# TrackBridge. Unreal-oriented centimetres: X=AC X, Y=AC Z, Z=AC Y.
mtllib model.mtl
o 3_wall_b_2
usemtl material_1
v -27694.528198 44994.787598 1332.790756
v -27615.872192 44933.966064 1333.199406
v -27615.124512 44933.361816 1226.203728
v -27694.454956 44994.735718 1225.790405
v -27615.872192 44933.966064 1333.199406
v -27676.531982 45018.789673 1332.790184
v -27596.981812 44957.272339 1333.199406
v -27694.528198 44994.787598 1332.790756
v -27676.531982 45018.789673 1332.790184
v -27596.234131 44956.665039 1226.203728
v -27596.981812 44957.272339 1333.199406
v -27676.45874 45018.737793 1225.789833
v -27808.294678 45078.19519 1226.000118
v -27808.035278 45078.012085 1333.001614
v -27790.490723 45102.346802 1333.002186
v -27808.035278 45078.012085 1333.001614
v -27790.490723 45102.346802 1333.002186
v -27790.74707 45102.529907 1226.000595
v -27921.456909 45159.225464 1331.504726
v -27920.800781 45158.7677 1224.499321
v -27921.456909 45159.225464 1331.504726
v -27904.153442 45183.734131 1331.503487
v -27904.153442 45183.734131 1331.503487
v -27903.497314 45183.276367 1224.498177
v -28139.065552 45311.001587 1228.292561
v -28136.727905 45309.378052 1335.258484
v -28119.619751 45334.024048 1335.258389
v -28136.727905 45309.378052 1335.258484
v -28119.619751 45334.024048 1335.258389
v -28121.960449 45335.647583 1228.292465
v -28632.012939 45653.735352 1247.0438
v -28629.064941 45651.690674 1353.983879
v -28629.064941 45651.690674 1353.983879
v -28611.965942 45676.339722 1353.983879
v -28611.965942 45676.339722 1353.983879
v -28614.910889 45678.384399 1247.0438
v -29178.640747 46029.406738 1270.452309
v -29175.308228 46027.154541 1377.377319
v -29175.308228 46027.154541 1377.377319
v -29158.52356 46052.020264 1377.376842
v -29158.52356 46052.020264 1377.376842
v -29161.856079 46054.272461 1270.451832
v -29577.46582 46293.643188 1290.673637
v -29573.361206 46290.975952 1397.561741
v -29573.361206 46290.975952 1397.561741
v -29557.012939 46316.131592 1397.56155
v -29557.012939 46316.131592 1397.56155
v -29561.117554 46318.798828 1290.673542
v -29940.011597 46526.516724 1310.000038
v -29936.257935 46524.124146 1416.907692
v -29920.117188 46549.411011 1416.907787
v -29936.257935 46524.124146 1416.907692
v -29920.117188 46549.411011 1416.907787
v -29923.867798 46551.806641 1310.000229
v -30310.437012 46759.384155 1327.667332
v -30306.860352 46757.162476 1434.584522
v -30291.030884 46782.647705 1434.584522
v -30306.860352 46757.162476 1434.584522
v -30291.030884 46782.647705 1434.584522
v -30294.607544 46784.869385 1327.667427
v -30688.412476 46993.399048 1344.999981
v -30684.875488 46991.207886 1451.918983
v -30669.070435 47016.708374 1451.918983
v -30684.875488 46991.207886 1451.918983
v -30669.070435 47016.708374 1451.918983
v -30672.607422 47018.899536 1344.999981
v -31097.372437 47247.000122 1363.830471
v -31093.847656 47244.818115 1470.750046
v -31093.847656 47244.818115 1470.750046
v -31078.070068 47270.333862 1470.750046
v -31078.070068 47270.333862 1470.750046
v -31081.5979 47272.515869 1363.830471
v -31509.194946 47499.099731 1381.871414
v -31505.969238 47497.15271 1488.805389
v -31505.969238 47497.15271 1488.805389
v -31490.46936 47522.839355 1488.80558
v -31490.46936 47522.839355 1488.80558
v -31493.695068 47524.786377 1381.871605
v -31898.669434 47731.311035 1396.742725
v -31895.803833 47729.623413 1503.691006
v -31880.57251 47755.46875 1503.691101
v -31895.803833 47729.623413 1503.691006
v -31880.57251 47755.46875 1503.691101
v -31883.43811 47757.156372 1396.742821
v -32281.390381 47954.562378 1410.556507
v -32278.417969 47952.84729 1517.501354
v -32263.406372 47978.820801 1517.501354
v -32278.417969 47952.84729 1517.501354
v -32263.406372 47978.820801 1517.501354
v -32266.378784 47980.53894 1410.556507
v -32662.606812 48173.416138 1424.615574
v -32659.628296 48171.722412 1531.560707
v -32659.628296 48171.722412 1531.560707
v -32644.80896 48197.808838 1531.560707
v -32644.80896 48197.808838 1531.560707
v -32647.790527 48199.499512 1424.615574
v -33047.784424 48388.363647 1438.968086
v -33044.671631 48386.663818 1545.909214
v -33044.671631 48386.663818 1545.909214
v -33030.285645 48412.991333 1545.909119
v -33030.285645 48412.991333 1545.909119
v -33033.398438 48414.694214 1438.967991
v -33452.926636 48603.991699 1454.384708
v -33449.703979 48602.307129 1561.32288
v -33435.797119 48628.887939 1561.322784
v -33449.703979 48602.307129 1561.32288
v -33435.797119 48628.887939 1561.322784
v -33439.019775 48630.575562 1454.384613
v -33852.67334 48813.186646 1469.999886
v -33849.331665 48811.419678 1576.933002
v -33835.321045 48837.948608 1576.933098
v -33849.331665 48811.419678 1576.933002
v -33835.321045 48837.948608 1576.933098
v -33838.665771 48839.712524 1469.999886
v -34208.108521 49002.041626 1484.751892
v -34204.574585 49000.164795 1591.676903
v -34204.574585 49000.164795 1591.676903
v -34190.490723 49026.654053 1591.676903
v -34190.490723 49026.654053 1591.676903
v -34194.024658 49028.530884 1484.751892
v -34573.794556 49194.403076 1499.999809
v -34570.391846 49192.63916 1606.931114
v -34570.391846 49192.63916 1606.931114
v -34556.57959 49219.268799 1606.931305
v -34556.57959 49219.268799 1606.931305
v -34559.9823 49221.032715 1499.999905
v -35024.856567 49425.552368 1517.812347
v -35021.539307 49423.864746 1624.747658
v -35007.931519 49450.601196 1624.747658
v -35021.539307 49423.864746 1624.747658
v -35007.931519 49450.601196 1624.747658
v -35011.248779 49452.288818 1517.812347
v -35462.188721 49648.025513 1534.999847
v -35458.795166 49646.292114 1641.931915
v -35445.15686 49673.013306 1641.931915
v -35458.795166 49646.292114 1641.931915
v -35445.15686 49673.013306 1641.931915
v -35448.553467 49674.746704 1534.999847
v -35802.163696 49821.484375 1548.749924
v -35798.687744 49819.711304 1655.678749
v -35798.687744 49819.711304 1655.678749
v -35785.058594 49846.435547 1655.678749
v -35785.058594 49846.435547 1655.678749
v -35788.534546 49848.208618 1548.749924
v -36072.625732 49959.362793 1559.999847
v -36069.024658 49957.525635 1666.923523
v -36069.024658 49957.525635 1666.923523
v -36055.407715 49984.255981 1666.923523
v -36055.407715 49984.255981 1666.923523
v -36059.008789 49986.09314 1559.999847
v -36069.024658 49957.525635 1666.923523
v -36072.625732 49959.359741 1559.999752
v -36055.407715 49984.255981 1666.923523
v -36059.008789 49986.090088 1559.999752
v -27596.981812 44957.272339 1333.199406
v -27596.234131 44956.668091 1226.203728
v -27615.872192 44933.966064 1333.199406
v -27615.124512 44933.361816 1226.203728
vt -0.05115 1.438525
vt 0 1.438525
vt 0 1
vt -0.05115 1
vt 0 1.438525
vt -0.05115 1.561475
vt 0 1.561475
vt -0.05115 1.438525
vt -0.05115 1.561475
vt 0 2
vt 0 1.561475
vt -0.05115 2
vt -0.122872 1
vt -0.122872 1.438525
vt -0.122872 1.561475
vt -0.122872 1.438525
vt -0.122872 1.561475
vt -0.122872 2
vt -0.193124 1.438525
vt -0.193124 1
vt -0.193124 1.438525
vt -0.193124 1.561475
vt -0.193124 1.561475
vt -0.193124 2
vt -0.328143 1
vt -0.328143 1.438525
vt -0.328143 1.561475
vt -0.328143 1.438525
vt -0.328143 1.561475
vt -0.328143 2
vt -0.632746 1
vt -0.632746 1.438525
vt -0.632746 1.438525
vt -0.632746 1.561475
vt -0.632746 1.561475
vt -0.632746 2
vt -0.969397 1
vt -0.969397 1.438525
vt -0.969397 1.438525
vt -0.969397 1.561475
vt -0.969397 1.561475
vt -0.969397 2
vt -1.21235 1
vt -1.21235 1.438525
vt -1.21235 1.438525
vt -1.21235 1.561475
vt -1.21235 1.561475
vt -1.21235 2
vt -1.431136 1
vt -1.431136 1.438525
vt -1.431136 1.561475
vt -1.431136 1.438525
vt -1.431136 1.561475
vt -1.431136 2
vt -1.653286 1
vt -1.653286 1.438525
vt -1.653286 1.561475
vt -1.653286 1.438525
vt -1.653286 1.561475
vt -1.653286 2
vt -1.878897 1
vt -1.878897 1.438525
vt -1.878897 1.561475
vt -1.878897 1.438525
vt -1.878897 1.561475
vt -1.878897 2
vt -2.123111 1
vt -2.123111 1.438525
vt -2.123111 1.438525
vt -2.123112 1.561475
vt -2.123112 1.561475
vt -2.123112 2
vt -2.368219 1
vt -2.368219 1.438525
vt -2.368219 1.438525
vt -2.36822 1.561475
vt -2.36822 1.561475
vt -2.36822 2
vt -2.598363 1
vt -2.598363 1.438525
vt -2.598364 1.561475
vt -2.598363 1.438525
vt -2.598364 1.561475
vt -2.598364 2
vt -2.82322 1
vt -2.82322 1.438525
vt -2.82322 1.561475
vt -2.82322 1.438525
vt -2.82322 1.561475
vt -2.82322 2
vt -3.046295 1
vt -3.046295 1.438525
vt -3.046295 1.438525
vt -3.046295 1.561475
vt -3.046295 1.561475
vt -3.046295 2
vt -3.270217 1
vt -3.270217 1.438525
vt -3.270217 1.438525
vt -3.270217 1.561475
vt -3.270217 1.561475
vt -3.270217 2
vt -3.503218 1
vt -3.503218 1.438525
vt -3.503218 1.561475
vt -3.503218 1.438525
vt -3.503218 1.561475
vt -3.503218 2
vt -3.732115 1
vt -3.732115 1.438525
vt -3.732115 1.561475
vt -3.732115 1.438525
vt -3.732115 1.561475
vt -3.732115 2
vt -3.936333 1
vt -3.936333 1.438525
vt -3.936333 1.438525
vt -3.936334 1.561475
vt -3.936334 1.561475
vt -3.936334 2
vt -4.146083 1
vt -4.146083 1.438525
vt -4.146083 1.438525
vt -4.146083 1.561475
vt -4.146083 1.561475
vt -4.146083 2
vt -4.403317 1
vt -4.403317 1.438525
vt -4.403317 1.561475
vt -4.403317 1.438525
vt -4.403317 1.561475
vt -4.403317 2
vt -4.652277 1
vt -4.652277 1.438525
vt -4.652277 1.561475
vt -4.652277 1.438525
vt -4.652277 1.561475
vt -4.652277 2
vt -4.845947 1
vt -4.845947 1.438525
vt -4.845947 1.438525
vt -4.845947 1.561475
vt -4.845947 1.561475
vt -4.845947 2
vt -5 1
vt -5 1.438525
vt -5 1.438525
vt -5 1.561475
vt -5 1.561475
vt -5 2
vt -5 1.438525
vt -5 1.438525
vt -5 1.561475
vt -5 1.561475
vt 0 1.561475
vt 0 1.561475
vt 0 1.438525
vt 0 1.438525
vn -0.601596 -0.7988 0.000052
vn -0.611799 -0.791013 0.000088
vn -0.611799 -0.791013 0.000088
vn -0.60159 -0.798805 0.000052
vn -0.003219 0.002522 0.999992
vn -0.001003 0.000815 0.999999
vn -0.003219 0.002522 0.999992
vn -0.001009 0.000819 0.999999
vn 0.60162 0.798782 -0.000052
vn 0.611855 0.79097 -0.000088
vn 0.611855 0.79097 -0.000088
vn 0.601614 0.798787 -0.000052
vn -0.586736 -0.809778 -0.000012
vn -0.58678 -0.809746 -0.000012
vn -0.003766 0.00268 0.999989
vn -0.003751 0.00267 0.999989
vn 0.586776 0.80975 0.000012
vn 0.586732 0.809781 0.000012
vn -0.577127 -0.816655 -0.000005
vn -0.577186 -0.816613 -0.000005
vn 0.001496 -0.00097 0.999998
vn 0.001503 -0.000974 0.999998
vn 0.577126 0.816655 0.000006
vn 0.577185 0.816613 0.000007
vn -0.571467 -0.820625 0.000027
vn -0.57147 -0.820623 0.000027
vn 0.018691 -0.012992 0.999741
vn 0.018678 -0.012983 0.999741
vn 0.571469 0.820624 -0.000027
vn 0.571466 0.820626 -0.000027
vn -0.568638 -0.822588 0.00005
vn -0.568639 -0.822587 0.00005
vn 0.027376 -0.018851 0.999447
vn 0.027372 -0.018848 0.999448
vn 0.568639 0.822587 -0.000051
vn 0.568639 0.822587 -0.000051
vn -0.559426 -0.82888 0.000056
vn -0.559415 -0.828888 0.000056
vn 0.032149 -0.021603 0.99925
vn 0.032149 -0.021603 0.99925
vn 0.559415 0.828888 -0.000055
vn 0.559425 0.828881 -0.000056
vn -0.54644 -0.837498 -0.000013
vn -0.546457 -0.837487 -0.000012
vn 0.036424 -0.023777 0.999054
vn 0.036427 -0.023778 0.999053
vn 0.546457 0.837487 0.000013
vn 0.54644 0.837499 0.000013
vn -0.536386 -0.843973 -0.000047
vn -0.536381 -0.843976 -0.000047
vn 0.035893 -0.022876 0.999094
vn 0.035889 -0.022873 0.999094
vn 0.536381 0.843976 0.000047
vn 0.536386 0.843973 0.000047
vn -0.529343 -0.848408 -0.000035
vn -0.529342 -0.848409 -0.000035
vn 0.033613 -0.021016 0.999214
vn 0.033614 -0.021017 0.999214
vn 0.529342 0.848409 0.000035
vn 0.529343 0.848408 0.000035
vn -0.526708 -0.850046 -0.000003
vn -0.526709 -0.850046 -0.000003
vn 0.033174 -0.020561 0.999238
vn 0.033174 -0.020561 0.999238
vn 0.526708 0.850046 0.000003
vn 0.526708 0.850046 0.000003
vn -0.524574 -0.851365 0.000031
vn -0.524575 -0.851364 0.000031
vn 0.032547 -0.02002 0.99927
vn 0.032549 -0.020021 0.99927
vn 0.524575 0.851364 -0.000031
vn 0.524574 0.851365 -0.000031
vn -0.517148 -0.855896 0.000012
vn -0.517149 -0.855896 0.000012
vn 0.029997 -0.018123 0.999386
vn 0.029995 -0.018122 0.999386
vn 0.517149 0.855896 -0.000012
vn 0.517148 0.855896 -0.000012
vn -0.508026 -0.861341 -0.000006
vn -0.508022 -0.861344 -0.000006
vn 0.027523 -0.016244 0.999489
vn 0.027523 -0.016245 0.999489
vn 0.508022 0.861344 0.000006
vn 0.508026 0.861342 0.000006
vn -0.5009 -0.865505 0.000011
vn -0.500902 -0.865504 0.000011
vn 0.027318 -0.015796 0.999502
vn 0.027317 -0.015796 0.999502
vn 0.500902 0.865504 -0.000011
vn 0.5009 0.865505 -0.000011
vn -0.492643 -0.870231 0.000026
vn -0.492642 -0.870232 0.000026
vn 0.028062 -0.015854 0.99948
vn 0.028061 -0.015854 0.99948
vn 0.492642 0.870232 -0.000027
vn 0.492644 0.870231 -0.000027
vn -0.478652 -0.878005 -0.000017
vn -0.478653 -0.878004 -0.000017
vn 0.028991 -0.01582 0.999454
vn 0.028991 -0.01582 0.999454
vn 0.478653 0.878004 0.000017
vn 0.478652 0.878005 0.000017
vn -0.466773 -0.884377 -0.000064
vn -0.466773 -0.884377 -0.000064
vn 0.030106 -0.015959 0.999419
vn 0.030103 -0.015959 0.999419
vn 0.466773 0.884377 0.000064
vn 0.466773 0.884377 0.000064
vn -0.46643 -0.884558 -0.000013
vn -0.466431 -0.884558 -0.000013
vn 0.031493 -0.016625 0.999366
vn 0.031494 -0.016625 0.999366
vn 0.466431 0.884558 0.000013
vn 0.46643 0.884558 0.000013
vn -0.467396 -0.884048 0.000031
vn -0.467397 -0.884047 0.000031
vn 0.032502 -0.017147 0.999325
vn 0.032502 -0.017147 0.999325
vn 0.467398 0.884047 -0.000032
vn 0.467396 0.884048 -0.000032
vn -0.460845 -0.887481 -0.000007
vn -0.460844 -0.887481 -0.000007
vn 0.031935 -0.016595 0.999352
vn 0.031934 -0.016595 0.999352
vn 0.460844 0.887481 0.000007
vn 0.460845 0.887481 0.000007
vn -0.454747 -0.890621 -0.000032
vn -0.454747 -0.890621 -0.000032
vn 0.031212 -0.015972 0.999385
vn 0.031212 -0.015972 0.999385
vn 0.454746 0.890621 0.000032
vn 0.454747 0.890621 0.000032
vn -0.453941 -0.891032 -0.000012
vn -0.453941 -0.891032 -0.000012
vn 0.031631 -0.016128 0.99937
vn 0.031631 -0.016129 0.99937
vn 0.453941 0.891032 0.000012
vn 0.453941 0.891032 0.000012
vn -0.454326 -0.890835 0.000002
vn -0.454326 -0.890835 0.000002
vn 0.032531 -0.016589 0.999333
vn 0.032531 -0.016589 0.999333
vn 0.454326 0.890835 -0.000002
vn 0.454326 0.890835 -0.000002
vn -0.454174 -0.890913 0.000002
vn -0.454174 -0.890913 0.000002
vn 0.032993 -0.016817 0.999314
vn 0.032993 -0.016817 0.999314
vn 0.454174 0.890913 -0.000002
vn 0.454174 0.890913 -0.000002
vn -0.890393 0.453624 0.037769
vn -0.890393 0.453624 0.037769
vn -0.890393 0.453624 0.037769
vn -0.890393 0.453624 0.037769
vn 0.776793 -0.629692 0.008984
vn 0.776793 -0.629692 0.008984
vn 0.776793 -0.629692 0.008984
vn 0.776793 -0.629692 0.008984
f 1/1/1 3/3/3 2/2/2
f 1/1/1 4/4/4 3/3/3
f 5/5/5 7/7/7 6/6/6
f 6/6/6 8/8/8 5/5/5
f 9/9/9 11/11/11 10/10/10
f 10/10/10 12/12/12 9/9/9
f 1/1/1 14/14/14 13/13/13
f 13/13/13 4/4/4 1/1/1
f 8/8/8 6/6/6 15/15/15
f 15/15/15 16/16/16 8/8/8
f 17/17/17 9/9/9 18/18/18
f 9/9/9 12/12/12 18/18/18
f 19/19/19 13/13/13 14/14/14
f 19/19/19 20/20/20 13/13/13
f 15/15/15 22/22/22 21/21/21
f 21/21/21 16/16/16 15/15/15
f 23/23/23 17/17/17 18/18/18
f 18/18/18 24/24/24 23/23/23
f 19/19/19 26/26/26 25/25/25
f 25/25/25 20/20/20 19/19/19
f 21/21/21 22/22/22 27/27/27
f 27/27/27 28/28/28 21/21/21
f 23/23/23 30/30/30 29/29/29
f 23/23/23 24/24/24 30/30/30
f 26/26/26 32/32/32 31/31/31
f 31/31/31 25/25/25 26/26/26
f 27/27/27 34/34/34 33/33/33
f 33/33/33 28/28/28 27/27/27
f 29/29/29 36/36/36 35/35/35
f 29/29/29 30/30/30 36/36/36
f 32/32/32 38/38/38 37/37/37
f 37/37/37 31/31/31 32/32/32
f 34/34/34 40/40/40 39/39/39
f 39/39/39 33/33/33 34/34/34
f 35/35/35 42/42/42 41/41/41
f 35/35/35 36/36/36 42/42/42
f 38/38/38 44/44/44 43/43/43
f 43/43/43 37/37/37 38/38/38
f 40/40/40 46/46/46 45/45/45
f 45/45/45 39/39/39 40/40/40
f 41/41/41 48/48/48 47/47/47
f 41/41/41 42/42/42 48/48/48
f 44/44/44 50/50/50 49/49/49
f 49/49/49 43/43/43 44/44/44
f 45/45/45 46/46/46 51/51/51
f 51/51/51 52/52/52 45/45/45
f 47/47/47 54/54/54 53/53/53
f 47/47/47 48/48/48 54/54/54
f 50/50/50 56/56/56 55/55/55
f 55/55/55 49/49/49 50/50/50
f 52/52/52 51/51/51 57/57/57
f 57/57/57 58/58/58 52/52/52
f 53/53/53 60/60/60 59/59/59
f 53/53/53 54/54/54 60/60/60
f 56/56/56 62/62/62 61/61/61
f 61/61/61 55/55/55 56/56/56
f 58/58/58 57/57/57 63/63/63
f 63/63/63 64/64/64 58/58/58
f 59/59/59 66/66/66 65/65/65
f 59/59/59 60/60/60 66/66/66
f 62/62/62 68/68/68 67/67/67
f 67/67/67 61/61/61 62/62/62
f 63/63/63 70/70/70 69/69/69
f 69/69/69 64/64/64 63/63/63
f 65/65/65 72/72/72 71/71/71
f 65/65/65 66/66/66 72/72/72
f 68/68/68 74/74/74 73/73/73
f 73/73/73 67/67/67 68/68/68
f 70/70/70 76/76/76 75/75/75
f 75/75/75 69/69/69 70/70/70
f 71/71/71 78/78/78 77/77/77
f 71/71/71 72/72/72 78/78/78
f 74/74/74 80/80/80 79/79/79
f 79/79/79 73/73/73 74/74/74
f 81/81/81 82/82/82 75/75/75
f 75/75/75 76/76/76 81/81/81
f 77/77/77 84/84/84 83/83/83
f 77/77/77 78/78/78 84/84/84
f 80/80/80 86/86/86 85/85/85
f 85/85/85 79/79/79 80/80/80
f 87/87/87 88/88/88 82/82/82
f 82/82/82 81/81/81 87/87/87
f 83/83/83 90/90/90 89/89/89
f 83/83/83 84/84/84 90/90/90
f 86/86/86 92/92/92 91/91/91
f 91/91/91 85/85/85 86/86/86
f 93/93/93 88/88/88 87/87/87
f 87/87/87 94/94/94 93/93/93
f 89/89/89 96/96/96 95/95/95
f 89/89/89 90/90/90 96/96/96
f 92/92/92 98/98/98 97/97/97
f 97/97/97 91/91/91 92/92/92
f 99/99/99 93/93/93 94/94/94
f 94/94/94 100/100/100 99/99/99
f 95/95/95 102/102/102 101/101/101
f 95/95/95 96/96/96 102/102/102
f 98/98/98 104/104/104 103/103/103
f 103/103/103 97/97/97 98/98/98
f 105/105/105 106/106/106 99/99/99
f 99/99/99 100/100/100 105/105/105
f 101/101/101 108/108/108 107/107/107
f 101/101/101 102/102/102 108/108/108
f 104/104/104 110/110/110 109/109/109
f 109/109/109 103/103/103 104/104/104
f 111/111/111 112/112/112 106/106/106
f 106/106/106 105/105/105 111/111/111
f 107/107/107 114/114/114 113/113/113
f 107/107/107 108/108/108 114/114/114
f 110/110/110 116/116/116 115/115/115
f 115/115/115 109/109/109 110/110/110
f 117/117/117 112/112/112 111/111/111
f 111/111/111 118/118/118 117/117/117
f 113/113/113 120/120/120 119/119/119
f 113/113/113 114/114/114 120/120/120
f 116/116/116 122/122/122 121/121/121
f 121/121/121 115/115/115 116/116/116
f 123/123/123 117/117/117 118/118/118
f 118/118/118 124/124/124 123/123/123
f 119/119/119 126/126/126 125/125/125
f 119/119/119 120/120/120 126/126/126
f 122/122/122 128/128/128 127/127/127
f 127/127/127 121/121/121 122/122/122
f 129/129/129 130/130/130 123/123/123
f 123/123/123 124/124/124 129/129/129
f 125/125/125 132/132/132 131/131/131
f 125/125/125 126/126/126 132/132/132
f 128/128/128 134/134/134 133/133/133
f 133/133/133 127/127/127 128/128/128
f 135/135/135 136/136/136 130/130/130
f 130/130/130 129/129/129 135/135/135
f 131/131/131 138/138/138 137/137/137
f 131/131/131 132/132/132 138/138/138
f 134/134/134 140/140/140 139/139/139
f 139/139/139 133/133/133 134/134/134
f 141/141/141 136/136/136 135/135/135
f 135/135/135 142/142/142 141/141/141
f 137/137/137 144/144/144 143/143/143
f 137/137/137 138/138/138 144/144/144
f 140/140/140 146/146/146 145/145/145
f 145/145/145 139/139/139 140/140/140
f 147/147/147 141/141/141 142/142/142
f 142/142/142 148/148/148 147/147/147
f 143/143/143 150/150/150 149/149/149
f 143/143/143 144/144/144 150/150/150
f 151/151/151 153/153/153 152/152/152
f 153/153/153 154/154/154 152/152/152
f 155/155/155 157/157/157 156/156/156
f 157/157/157 158/158/158 156/156/156
o 3_wall_b_3
usemtl material_1
v 19455.264282 49157.879639 -1.426542
v 19054.327393 49164.89563 -106.138623
v 19054.83551 49164.880371 0.860178
v 19454.550171 49157.885742 -108.424127
v 19055.69458 49194.869995 0.860012
v 19455.264282 49157.879639 -1.426542
v 19054.83551 49164.880371 0.860178
v 19455.459595 49187.88147 -1.426542
v 19455.459595 49187.88147 -1.426542
v 19055.69458 49194.869995 0.860012
v 19055.186462 49194.885254 -106.13879
v 19454.745483 49187.884521 -108.424127
v 18657.463074 49180.69458 -104.638147
v 18657.762146 49180.679321 2.361441
v 18659.295654 49210.641479 2.361274
v 18657.762146 49180.679321 2.361441
v 18659.295654 49210.641479 2.361274
v 18658.996582 49210.656738 -104.638326
v 18267.070007 49206.494141 -103.849852
v 18267.178345 49206.484985 3.150129
v 18267.178345 49206.484985 3.150129
v 18269.502258 49236.395264 3.149986
v 18269.502258 49236.395264 3.149986
v 18269.393921 49236.404419 -103.849995
v 17874.038696 49238.635254 -103.992164
v 17873.835754 49238.653564 3.007913
v 17873.835754 49238.653564 3.007913
v 17876.287842 49268.551636 3.007936
v 17876.49231 49268.536377 -103.99214
v 17876.287842 49268.551636 3.007936
v 17457.640076 49272.146606 0.88886
v 17458.311462 49272.088623 -106.108999
v 17460.159302 49302.041626 0.888956
v 17457.640076 49272.146606 0.88886
v 17460.159302 49302.041626 0.888956
v 17460.830688 49301.983643 -106.108916
v 17053.384399 49312.374878 -0.649738
v 17053.268433 49312.380981 -107.651758
v 17057.043457 49342.160034 -0.647402
v 17053.384399 49312.374878 -0.649738
v 17057.043457 49342.160034 -0.647402
v 17056.92749 49342.166138 -107.649422
v 16703.031921 49364.810181 -104.541445
v 16704.347229 49364.584351 2.450299
v 16704.347229 49364.584351 2.450299
v 16709.411621 49394.155884 2.450061
v 16709.411621 49394.155884 2.450061
v 16708.096313 49394.381714 -104.541683
v 16359.416199 49424.679565 -102.403259
v 16358.979797 49424.752808 4.600286
v 16358.979797 49424.752808 4.600286
v 16363.954163 49454.3396 4.600644
v 16363.954163 49454.3396 4.600644
v 16364.390564 49454.263306 -102.402914
v 15958.773804 49492.407227 -0.348675
v 15960.55603 49492.102051 -107.333672
v 15963.847351 49521.975708 -0.348842
v 15958.773804 49492.407227 -0.348675
v 15963.847351 49521.975708 -0.348842
v 15965.631104 49521.670532 -107.333827
v 15584.407043 49559.140015 -6.837082
v 15585.931396 49558.850098 -113.825905
v 15589.987183 49588.616943 -6.836867
v 15584.407043 49559.140015 -6.837082
v 15589.987183 49588.616943 -6.836867
v 15591.51001 49588.330078 -113.825691
v 15300.805664 49615.945435 -10.980862
v 15302.294922 49615.625 -117.970002
v 15307.084656 49645.285034 -10.980839
v 15300.805664 49615.945435 -10.980862
v 15307.084656 49645.285034 -10.980839
v 15308.573914 49644.9646 -117.969966
v 15085.84137 49665.942383 -14.07969
v 15087.277222 49665.57312 -121.069372
v 15093.322754 49694.995117 -14.07969
v 15085.84137 49665.942383 -14.07969
v 15093.322754 49694.995117 -14.07969
v 15094.760132 49694.622803 -121.069372
v 15085.84137 49665.942383 -14.07969
v 15094.758606 49694.625854 -121.069372
v 15093.322754 49694.995117 -14.07969
v 15087.277222 49665.57312 -121.069372
v 19455.459595 49187.88147 -1.426542
v 19454.550171 49157.88269 -108.424127
v 19455.264282 49157.879639 -1.426542
v 19454.745483 49187.884521 -108.424127
vt 0 1.438525
vt -0.272598 1
vt -0.272598 1.438525
vt 0 1
vt -0.272598 1.561475
vt 0 1.438525
vt -0.272598 1.438525
vt 0 1.561475
vt 0 1.561475
vt -0.272598 1.561475
vt -0.272598 2
vt 0 2
vt -0.543073 1
vt -0.543073 1.438525
vt -0.543073 1.561475
vt -0.543073 1.438525
vt -0.543073 1.561475
vt -0.543073 2
vt -0.809462 1
vt -0.809462 1.438525
vt -0.809462 1.438525
vt -0.809462 1.561475
vt -0.809462 1.561475
vt -0.809462 2
vt -1.078188 1
vt -1.078188 1.438525
vt -1.078188 1.438525
vt -1.078188 1.561475
vt -1.078188 2
vt -1.078188 1.561475
vt -1.36243 1.438525
vt -1.36243 1
vt -1.36243 1.561475
vt -1.36243 1.438525
vt -1.36243 1.561475
vt -1.36243 2
vt -1.639467 1.438525
vt -1.639467 1
vt -1.639468 1.561475
vt -1.639467 1.438525
vt -1.639468 1.561475
vt -1.639468 2
vt -1.880361 1
vt -1.880361 1.438525
vt -1.880361 1.438525
vt -1.880361 1.561475
vt -1.880361 1.561475
vt -1.880361 2
vt -2.118121 1
vt -2.118121 1.438525
vt -2.118121 1.438525
vt -2.118121 1.561475
vt -2.118121 1.561475
vt -2.118121 2
vt -2.393812 1.438525
vt -2.393812 1
vt -2.393812 1.561475
vt -2.393812 1.438525
vt -2.393812 1.561475
vt -2.393813 2
vt -2.653028 1.438525
vt -2.653028 1
vt -2.653028 1.561475
vt -2.653028 1.438525
vt -2.653028 1.561475
vt -2.653028 2
vt -2.849956 1.438525
vt -2.849956 1
vt -2.849956 1.561475
vt -2.849956 1.438525
vt -2.849956 1.561475
vt -2.849957 2
vt -3 1.438525
vt -3 1
vt -3 1.561475
vt -3 1.438525
vt -3 1.561475
vt -3 2
vt -3 1.438525
vt -3 1.561475
vt -3 1.561475
vt -3 1.438525
vt 0 1.561475
vt 0 1.438525
vt 0 1.438525
vt 0 1.561475
vn -0.017495 -0.999847 0.000007
vn -0.028632 -0.99959 0.000006
vn -0.028632 -0.99959 0.000006
vn -0.017495 -0.999847 0.000007
vn 0.004746 -0.000121 0.999989
vn 0.005713 -0.000098 0.999984
vn 0.004746 -0.000121 0.999989
vn 0.005713 -0.000098 0.999984
vn 0.0175 0.999847 -0.000008
vn 0.028635 0.99959 -0.000006
vn 0.028635 0.99959 -0.000006
vn 0.0175 0.999847 -0.000008
vn -0.052855 -0.998602 0.000007
vn -0.052856 -0.998602 0.000007
vn 0.002895 -0.000135 0.999996
vn 0.002897 -0.000135 0.999996
vn 0.052857 0.998602 -0.000007
vn 0.052855 0.998602 -0.000007
vn -0.073725 -0.997279 0.000005
vn -0.073724 -0.997279 0.000005
vn 0.000824 -0.000047 1
vn 0.00083 -0.000047 1
vn 0.073722 0.997279 -0.000005
vn 0.073724 0.997279 -0.000005
vn -0.08086 -0.996725 0.000008
vn -0.08086 -0.996725 0.000008
vn -0.00271 0.000225 0.999996
vn -0.002707 0.000225 0.999996
vn 0.08086 0.996725 -0.000008
vn 0.080861 0.996725 -0.000008
vn -0.089624 -0.995976 -0.000002
vn -0.089602 -0.995978 -0.000002
vn -0.004414 0.000384 0.99999
vn -0.004418 0.000384 0.99999
vn 0.08963 0.995975 0.000002
vn 0.089607 0.995977 0.000002
vn -0.123558 -0.992337 -0.000051
vn -0.123514 -0.992343 -0.000051
vn 0.002469 -0.000483 0.999997
vn 0.002456 -0.000481 0.999997
vn 0.123557 0.992337 0.000051
vn 0.123513 0.992343 0.000051
vn -0.159865 -0.987139 -0.000037
vn -0.159789 -0.987151 -0.000037
vn 0.007365 -0.00117 0.999972
vn 0.00738 -0.001172 0.999972
vn 0.159781 0.987152 0.000037
vn 0.159857 0.98714 0.000037
vn -0.169163 -0.985588 0.000015
vn -0.169159 -0.985589 0.000015
vn -0.002969 0.000502 0.999995
vn -0.003008 0.000509 0.999995
vn 0.169156 0.985589 -0.000015
vn 0.169159 0.985589 -0.000015
vn -0.171073 -0.985258 0.000023
vn -0.17106 -0.985261 0.000023
vn -0.014414 0.002535 0.999893
vn -0.014408 0.002534 0.999893
vn 0.171073 0.985258 -0.000023
vn 0.171061 0.98526 -0.000023
vn -0.185895 -0.98257 0.000023
vn -0.185911 -0.982567 0.000023
vn -0.015431 0.002931 0.999877
vn -0.015431 0.002931 0.999877
vn 0.185897 0.982569 -0.000023
vn 0.185913 0.982566 -0.000023
vn -0.211394 -0.977401 0.000031
vn -0.211393 -0.977401 0.000031
vn -0.013882 0.00303 0.999899
vn -0.013883 0.00303 0.999899
vn 0.211379 0.977404 -0.000031
vn 0.211379 0.977404 -0.000031
vn -0.226401 -0.974034 0.00004
vn -0.226401 -0.974034 0.00004
vn -0.013704 0.003229 0.999901
vn -0.013704 0.003229 0.999901
vn 0.226369 0.974042 -0.00004
vn 0.226369 0.974042 -0.00004
vn -0.96831 0.249368 -0.013856
vn -0.96831 0.249368 -0.013856
vn -0.96831 0.249368 -0.013856
vn -0.96831 0.249368 -0.013856
vn 0.999957 -0.00651 -0.006674
vn 0.999957 -0.00651 -0.006674
vn 0.999957 -0.00651 -0.006674
vn 0.999957 -0.00651 -0.006674
f 159/159/159 161/161/161 160/160/160
f 160/160/160 162/162/162 159/159/159
f 163/163/163 165/165/165 164/164/164
f 164/164/164 166/166/166 163/163/163
f 167/167/167 169/169/169 168/168/168
f 167/167/167 170/170/170 169/169/169
f 161/161/161 172/172/172 171/171/171
f 171/171/171 160/160/160 161/161/161
f 173/173/173 174/174/174 165/165/165
f 165/165/165 163/163/163 173/173/173
f 168/168/168 176/176/176 175/175/175
f 168/168/168 169/169/169 176/176/176
f 172/172/172 178/178/178 177/177/177
f 177/177/177 171/171/171 172/172/172
f 179/179/179 174/174/174 173/173/173
f 173/173/173 180/180/180 179/179/179
f 175/175/175 182/182/182 181/181/181
f 175/175/175 176/176/176 182/182/182
f 178/178/178 184/184/184 183/183/183
f 183/183/183 177/177/177 178/178/178
f 185/185/185 179/179/179 180/180/180
f 180/180/180 186/186/186 185/185/185
f 187/187/187 188/188/188 181/181/181
f 181/181/181 182/182/182 187/187/187
f 189/189/189 183/183/183 184/184/184
f 189/189/189 190/190/190 183/183/183
f 191/191/191 192/192/192 185/185/185
f 185/185/185 186/186/186 191/191/191
f 193/193/193 188/188/188 187/187/187
f 187/187/187 194/194/194 193/193/193
f 195/195/195 190/190/190 189/189/189
f 195/195/195 196/196/196 190/190/190
f 197/197/197 198/198/198 192/192/192
f 192/192/192 191/191/191 197/197/197
f 199/199/199 193/193/193 194/194/194
f 194/194/194 200/200/200 199/199/199
f 195/195/195 202/202/202 201/201/201
f 201/201/201 196/196/196 195/195/195
f 203/203/203 198/198/198 197/197/197
f 197/197/197 204/204/204 203/203/203
f 199/199/199 206/206/206 205/205/205
f 199/199/199 200/200/200 206/206/206
f 202/202/202 208/208/208 207/207/207
f 207/207/207 201/201/201 202/202/202
f 209/209/209 203/203/203 204/204/204
f 204/204/204 210/210/210 209/209/209
f 205/205/205 212/212/212 211/211/211
f 205/205/205 206/206/206 212/212/212
f 213/213/213 207/207/207 208/208/208
f 213/213/213 214/214/214 207/207/207
f 215/215/215 216/216/216 209/209/209
f 209/209/209 210/210/210 215/215/215
f 217/217/217 211/211/211 212/212/212
f 212/212/212 218/218/218 217/217/217
f 219/219/219 214/214/214 213/213/213
f 219/219/219 220/220/220 214/214/214
f 221/221/221 222/222/222 216/216/216
f 216/216/216 215/215/215 221/221/221
f 223/223/223 217/217/217 218/218/218
f 218/218/218 224/224/224 223/223/223
f 225/225/225 220/220/220 219/219/219
f 225/225/225 226/226/226 220/220/220
f 227/227/227 228/228/228 222/222/222
f 222/222/222 221/221/221 227/227/227
f 229/229/229 223/223/223 224/224/224
f 224/224/224 230/230/230 229/229/229
f 231/231/231 226/226/226 225/225/225
f 231/231/231 232/232/232 226/226/226
f 233/233/233 234/234/234 228/228/228
f 228/228/228 227/227/227 233/233/233
f 235/235/235 229/229/229 230/230/230
f 230/230/230 236/236/236 235/235/235
f 237/237/237 239/239/239 238/238/238
f 238/238/238 240/240/240 237/237/237
f 241/241/241 243/243/243 242/242/242
f 242/242/242 244/244/244 241/241/241
o 3_wall_a_4
usemtl material_1
v 18397.30835 28489.233398 108.135629
v 18124.203491 27955.383301 110.019791
v 18124.0448 27955.075073 3.020392
v 18397.161865 28488.946533 1.136159
v 18424.015808 28475.570679 108.135629
v 18150.91095 27941.720581 110.019791
v 18124.203491 27955.383301 110.019791
v 18397.30835 28489.233398 108.135629
v 18424.015808 28475.570679 108.135629
v 18150.753784 27941.412354 3.020392
v 18150.91095 27941.720581 110.019791
v 18423.869324 28475.283813 1.136159
v 18580.381775 28846.948242 107.005262
v 18580.26123 28846.710205 0.005615
v 18580.381775 28846.948242 107.005262
v 18607.084656 28833.276367 107.005262
v 18607.084656 28833.276367 107.005262
v 18606.964111 28833.03833 0.005616
v 18638.00354 28959.469604 106.81504
v 18638.328552 28960.098267 -0.182767
v 18638.00354 28959.469604 106.81504
v 18664.6698 28945.721436 106.815076
v 18664.6698 28945.721436 106.815076
v 18664.994812 28946.353149 -0.182726
v 18676.416016 29033.932495 107.00562
v 18676.417542 29033.935547 0.005602
v 18676.416016 29033.932495 107.00562
v 18703.088379 29020.202637 107.00562
v 18703.088379 29020.202637 107.00562
v 18703.089905 29020.202637 0.005604
v 18811.935425 29296.789551 107.004952
v 18811.935425 29296.789551 0.004991
v 18811.935425 29296.789551 107.004952
v 18838.598633 29283.041382 107.004952
v 18838.598633 29283.041382 107.004952
v 18838.598633 29283.041382 0.004991
v 18973.135376 29609.820557 107.004166
v 18973.135376 29609.820557 0.004205
v 18973.135376 29609.820557 107.004166
v 18999.81842 29596.109009 107.004166
v 18999.81842 29596.109009 107.004166
v 18999.81842 29596.109009 0.004205
v 19123.387146 29902.651978 107.003462
v 19123.387146 29902.648926 0.003506
v 19123.387146 29902.651978 107.003462
v 19150.086975 29888.970947 107.003462
v 19150.086975 29888.970947 107.003462
v 19150.086975 29888.970947 0.003506
v 19274.909973 30198.754883 107.002771
v 19274.909973 30198.751831 0.002807
v 19274.909973 30198.754883 107.002771
v 19301.623535 30185.101318 107.002771
v 19301.623535 30185.101318 107.002771
v 19301.623535 30185.101318 0.002807
v 18150.91095 27941.720581 110.019791
v 18150.753784 27941.412354 3.020399
v 18124.203491 27955.383301 110.019791
v 18124.0448 27955.075073 3.020399
v 19274.909973 30198.754883 107.002771
v 19274.909973 30198.751831 0.002449
v 19301.623535 30185.101318 107.002771
v 19301.623535 30185.098267 0.002431
vt -0.475625 1.438525
vt 0 1.438525
vt 0 1
vt -0.475625 1
vt -0.475625 1.561475
vt 0 1.561475
vt 0 1.438525
vt -0.475625 1.438525
vt -0.475625 1.561475
vt 0 2
vt 0 1.561475
vt -0.475625 2
vt -0.794376 1.438525
vt -0.794376 1
vt -0.794376 1.438525
vt -0.794376 1.561475
vt -0.794376 1.561475
vt -0.794376 2
vt -0.89535 1.438525
vt -0.89535 1
vt -0.89535 1.438525
vt -0.89535 1.561475
vt -0.89535 1.561475
vt -0.89535 2
vt -0.961257 1.438525
vt -0.961257 1
vt -0.961257 1.438525
vt -0.961257 1.561475
vt -0.961257 1.561475
vt -0.961257 2
vt -1.195798 1.438525
vt -1.195798 1
vt -1.195798 1.438525
vt -1.195798 1.561475
vt -1.195798 1.561475
vt -1.195798 2
vt -1.475092 1.438525
vt -1.475092 1
vt -1.475092 1.438525
vt -1.475092 1.561475
vt -1.475092 1.561475
vt -1.475093 2
vt -1.736162 1.438525
vt -1.736162 1
vt -1.736162 1.438525
vt -1.736162 1.561475
vt -1.736162 1.561475
vt -1.736162 2
vt -2 1.438525
vt -2 1
vt -2 1.438525
vt -2 1.561475
vt -2 1.561475
vt -2 2
vt 0 1.561475
vt 0 1.561475
vt 0 1.438525
vt 0 1.438525
vt -2 1.438525
vt -2 1.438525
vt -2 1.561475
vt -2 1.561475
vn -0.890229 0.455514 0
vn -0.890267 0.45544 0
vn -0.890267 0.45544 0
vn -0.890229 0.455514 0
vn 0.001356 0.002651 0.999996
vn 0.001431 0.002797 0.999995
vn 0.001431 0.002797 0.999995
vn 0.001356 0.002651 0.999996
vn 0.890229 -0.455514 0
vn 0.890267 -0.45544 0
vn 0.890267 -0.45544 0
vn 0.890229 -0.455514 0
vn -0.890132 0.455702 -0.000004
vn -0.890132 0.455702 -0.000004
vn 0.000984 0.001922 0.999998
vn 0.000984 0.001922 0.999998
vn 0.890132 -0.455702 0.000004
vn 0.890132 -0.455702 0.000004
vn -0.889402 0.457126 -0.000003
vn -0.889397 0.457136 -0.000003
vn -0.000178 -0.000342 1
vn -0.000177 -0.00034 1
vn 0.889402 -0.457125 0.000003
vn 0.889397 -0.457136 0.000003
vn -0.888775 0.458344 0.000001
vn -0.888775 0.458344 0.000001
vn -0.000521 -0.00101 0.999999
vn -0.00052 -0.001009 0.999999
vn 0.888775 -0.458344 -0.000001
vn 0.888775 -0.458344 -0.000001
vn -0.888934 0.458035 0
vn -0.888934 0.458035 0
vn 0.000001 0.000002 1
vn 0.000001 0.000002 1
vn 0.888934 -0.458035 0
vn 0.888934 -0.458035 0
vn -0.889378 0.457172 0
vn -0.889378 0.457172 0
vn 0.000001 0.000002 1
vn 0.000001 0.000002 1
vn 0.889378 -0.457172 0
vn 0.889378 -0.457172 0
vn -0.889965 0.456029 0
vn -0.889965 0.456029 0
vn 0.000001 0.000002 1
vn 0.000001 0.000002 1
vn 0.889965 -0.456029 0
vn 0.889965 -0.456029 0
vn -0.890214 0.455542 0
vn -0.890214 0.455542 0
vn 0.000001 0.000002 1
vn 0.000001 0.000002 1
vn 0.890214 -0.455542 0
vn 0.890214 -0.455542 0
vn -0.455393 -0.890284 0.003233
vn -0.455393 -0.890284 0.003233
vn -0.455393 -0.890284 0.003233
vn -0.455393 -0.890284 0.003233
vn 0.455063 0.890459 -0.000025
vn 0.455063 0.890459 -0.000025
vn 0.455063 0.890459 -0.000025
vn 0.455063 0.890459 -0.000025
f 245/245/245 247/247/247 246/246/246
f 245/245/245 248/248/248 247/247/247
f 249/249/249 251/251/251 250/250/250
f 251/251/251 249/249/249 252/252/252
f 253/253/253 255/255/255 254/254/254
f 254/254/254 256/256/256 253/253/253
f 257/257/257 248/248/248 245/245/245
f 257/257/257 258/258/258 248/248/248
f 252/252/252 260/260/260 259/259/259
f 252/252/252 249/249/249 260/260/260
f 261/261/261 253/253/253 256/256/256
f 256/256/256 262/262/262 261/261/261
f 263/263/263 258/258/258 257/257/257
f 263/263/263 264/264/264 258/258/258
f 259/259/259 266/266/266 265/265/265
f 259/259/259 260/260/260 266/266/266
f 267/267/267 261/261/261 262/262/262
f 262/262/262 268/268/268 267/267/267
f 269/269/269 264/264/264 263/263/263
f 269/269/269 270/270/270 264/264/264
f 271/271/271 265/265/265 266/266/266
f 266/266/266 272/272/272 271/271/271
f 273/273/273 267/267/267 268/268/268
f 268/268/268 274/274/274 273/273/273
f 275/275/275 270/270/270 269/269/269
f 275/275/275 276/276/276 270/270/270
f 277/277/277 271/271/271 272/272/272
f 272/272/272 278/278/278 277/277/277
f 279/279/279 273/273/273 274/274/274
f 274/274/274 280/280/280 279/279/279
f 281/281/281 276/276/276 275/275/275
f 281/281/281 282/282/282 276/276/276
f 283/283/283 277/277/277 278/278/278
f 278/278/278 284/284/284 283/283/283
f 285/285/285 279/279/279 280/280/280
f 280/280/280 286/286/286 285/285/285
f 287/287/287 282/282/282 281/281/281
f 287/287/287 288/288/288 282/282/282
f 283/283/283 290/290/290 289/289/289
f 283/283/283 284/284/284 290/290/290
f 291/291/291 285/285/285 286/286/286
f 286/286/286 292/292/292 291/291/291
f 293/293/293 288/288/288 287/287/287
f 293/293/293 294/294/294 288/288/288
f 289/289/289 296/296/296 295/295/295
f 289/289/289 290/290/290 296/296/296
f 297/297/297 291/291/291 292/292/292
f 292/292/292 298/298/298 297/297/297
f 299/299/299 301/301/301 300/300/300
f 301/301/301 302/302/302 300/300/300
f 303/303/303 305/305/305 304/304/304
f 305/305/305 306/306/306 304/304/304
o 3_wall_a_7
usemtl material_3
v 14817.221069 29709.115601 -5.157018
v 14817.880249 29710.791016 344.838357
v 14958.018494 30067.193604 342.867875
v 14957.359314 30065.515137 -7.127499
v 15097.825623 30422.756958 340.902019
v 15097.497559 30421.917725 -9.09798
v 15315.422058 30980.941772 340.901995
v 15315.422058 30980.941772 -9.097993
v 15532.922363 31538.882446 340.901995
v 15533.346558 31539.968872 -9.098005
v 15586.985779 31677.548218 341.893959
v 15587.832642 31679.724121 -8.098231
v 15641.325378 31816.995239 342.891479
v 15642.320251 31819.476318 -7.098457
v 15753.900146 32089.11438 345.428014
v 15755.053711 32091.900635 -4.558978
v 15866.734314 32362.008667 347.971606
v 15867.785645 32364.321899 -2.0195
v 16047.787476 32732.128906 350.399756
v 16048.693848 32733.984375 0.405844
v 16228.695679 33101.791382 352.825093
v 16229.602051 33103.643799 2.831187
vt 0 1
vt 0 4.5
vt -1.04103 4.5
vt -1.041029 1
vt -2.082059 4.5
vt -2.082059 1
vt -3.713053 4.5
vt -3.713053 1
vt -5.344048 4.5
vt -5.344048 1
vt -5.751804 4.5
vt -5.751803 1
vt -6.159561 4.5
vt -6.15956 1
vt -6.961024 4.5
vt -6.961024 1
vt -7.762488 4.5
vt -7.762487 1
vt -8.881244 4.5
vt -8.881244 1
vt -10 4.5
vt -10 1
vn 0.930642 -0.365932 0
vn 0.930642 -0.365932 0
vn 0.930643 -0.36593 0
vn 0.930642 -0.365931 0.000001
vn 0.931177 -0.364568 0.000001
vn 0.931176 -0.36457 0.000002
vn 0.931708 -0.363207 0
vn 0.931708 -0.363207 0
vn 0.931701 -0.363227 0
vn 0.931701 -0.363227 0
vn 0.931724 -0.363166 0.000001
vn 0.931701 -0.363226 0.000028
vn 0.927943 -0.372722 -0.000032
vn 0.927909 -0.372807 0.000018
vn 0.924077 -0.382207 -0.000022
vn 0.924035 -0.382309 0.000069
vn 0.911627 -0.411019 -0.000046
vn 0.911577 -0.41113 0.000068
vn 0.898224 -0.439537 -0.000046
vn 0.898207 -0.439573 0
vn 0.898207 -0.439573 0
vn 0.898207 -0.439573 0
f 307/307/307 309/309/309 308/308/308
f 309/309/309 307/307/307 310/310/310
f 310/310/310 311/311/311 309/309/309
f 311/311/311 310/310/310 312/312/312
f 312/312/312 313/313/313 311/311/311
f 313/313/313 312/312/312 314/314/314
f 314/314/314 315/315/315 313/313/313
f 315/315/315 314/314/314 316/316/316
f 316/316/316 317/317/317 315/315/315
f 317/317/317 316/316/316 318/318/318
f 318/318/318 319/319/319 317/317/317
f 319/319/319 318/318/318 320/320/320
f 320/320/320 321/321/321 319/319/319
f 321/321/321 320/320/320 322/322/322
f 322/322/322 323/323/323 321/321/321
f 323/323/323 322/322/322 324/324/324
f 324/324/324 325/325/325 323/323/323
f 325/325/325 324/324/324 326/326/326
f 326/326/326 327/327/327 325/325/325
f 327/327/327 326/326/326 328/328/328
